<svg xmlns="http://www.w3.org/2000/svg" width="101" height="98" viewBox="0 0 101 98">
  <g id="Grupo_10" data-name="Grupo 10" transform="translate(-116.877 -146.403)">
    <path id="Caminho_7" data-name="Caminho 7" d="M2.735,12.407A32.22,32.22,0,0,1,12.3,0c-.011.328,13.6,13.539,13.636,13.652C22.375,16.187,18.1,22.269,22.4,29.781c1.916,3.381,3.88,4.263,6.681,5.436-.12.407-2.626,13.006-4.413,22.171-.506-.063-9.918-2.668-14.572-8.117-4.125-4.927-7.168-8.713-9.106-16.1A27.183,27.183,0,0,1,.368,21.566C.762,21.062.529,17.25,2.735,12.407Z" transform="translate(144.884 146.403) rotate(20)" fill="#b63017"/>
    <path id="Caminho_10" data-name="Caminho 10" d="M481.9,681.95c4.277.313,6.5,2.692,8.658,4.746,1.982,3.129,3.39,6.781.835,12.674,10.666,3.173,20.737,6.4,20.737,6.4a26.388,26.388,0,0,0,1.586-9.056c.085-6.987-1.2-14.135-7.98-22.532A33.883,33.883,0,0,0,483.1,662.86Z" transform="translate(-312.22 -514.986)" fill="#db5a1e"/>
    <path id="Caminho_11" data-name="Caminho 11" d="M.19,22.567a11.646,11.646,0,0,1,8.548,7.626c8.945-2.789,21.723-7.9,21.723-7.9a38.819,38.819,0,0,0-4.746-8.985,28.111,28.111,0,0,0-7.127-6.961C8.388-.664,0,.018,0,.018Z" transform="matrix(-0.574, 0.819, -0.819, -0.574, 195.158, 201.592)" fill="#2e4859"/>
  </g>
  <text id="EstimaSoft" transform="translate(0 93)" fill="#2f4859" font-size="20" font-family="SegoeUI-Bold, Segoe UI" font-weight="700"><tspan x="0" y="0">EstimaSoft</tspan></text>
</svg>
